<svg id="visual" viewBox="0 0 900 600" width="900" height="600" xmlns="http://www.w3.org/2000/svg" xmlns:xlink="http://www.w3.org/1999/xlink" version="1.1"><rect x="0" y="0" width="900" height="600" fill="#001220"></rect><defs><linearGradient id="grad1_0" x1="33.3%" y1="100%" x2="100%" y2="0%"><stop offset="20%" stop-color="#715df2" stop-opacity="1"></stop><stop offset="80%" stop-color="#715df2" stop-opacity="1"></stop></linearGradient></defs><defs><linearGradient id="grad1_1" x1="33.3%" y1="100%" x2="100%" y2="0%"><stop offset="20%" stop-color="#715df2" stop-opacity="1"></stop><stop offset="80%" stop-color="#2651c0" stop-opacity="1"></stop></linearGradient></defs><defs><linearGradient id="grad1_2" x1="33.3%" y1="100%" x2="100%" y2="0%"><stop offset="20%" stop-color="#003f8a" stop-opacity="1"></stop><stop offset="80%" stop-color="#2651c0" stop-opacity="1"></stop></linearGradient></defs><defs><linearGradient id="grad1_3" x1="33.3%" y1="100%" x2="100%" y2="0%"><stop offset="20%" stop-color="#003f8a" stop-opacity="1"></stop><stop offset="80%" stop-color="#002a53" stop-opacity="1"></stop></linearGradient></defs><defs><linearGradient id="grad1_4" x1="33.3%" y1="100%" x2="100%" y2="0%"><stop offset="20%" stop-color="#001220" stop-opacity="1"></stop><stop offset="80%" stop-color="#002a53" stop-opacity="1"></stop></linearGradient></defs><defs><linearGradient id="grad2_0" x1="0%" y1="100%" x2="66.7%" y2="0%"><stop offset="20%" stop-color="#715df2" stop-opacity="1"></stop><stop offset="80%" stop-color="#715df2" stop-opacity="1"></stop></linearGradient></defs><defs><linearGradient id="grad2_1" x1="0%" y1="100%" x2="66.7%" y2="0%"><stop offset="20%" stop-color="#2651c0" stop-opacity="1"></stop><stop offset="80%" stop-color="#715df2" stop-opacity="1"></stop></linearGradient></defs><defs><linearGradient id="grad2_2" x1="0%" y1="100%" x2="66.7%" y2="0%"><stop offset="20%" stop-color="#2651c0" stop-opacity="1"></stop><stop offset="80%" stop-color="#003f8a" stop-opacity="1"></stop></linearGradient></defs><defs><linearGradient id="grad2_3" x1="0%" y1="100%" x2="66.7%" y2="0%"><stop offset="20%" stop-color="#002a53" stop-opacity="1"></stop><stop offset="80%" stop-color="#003f8a" stop-opacity="1"></stop></linearGradient></defs><defs><linearGradient id="grad2_4" x1="0%" y1="100%" x2="66.7%" y2="0%"><stop offset="20%" stop-color="#002a53" stop-opacity="1"></stop><stop offset="80%" stop-color="#001220" stop-opacity="1"></stop></linearGradient></defs><g transform="translate(900, 600)"><path d="M-54.1 0C-53.8 -11.5 -53.6 -22.9 -46.8 -27C-40.1 -31.1 -26.9 -27.9 -18 -31.2C-9.1 -34.5 -4.6 -44.3 0 -54.1L0 0Z" fill="#001e38"></path><path d="M-43.3 0C-43.1 -9.2 -42.9 -18.3 -37.5 -21.6C-32.1 -24.9 -21.5 -22.3 -14.4 -24.9C-7.3 -27.6 -3.6 -35.4 0 -43.3L0 0Z" fill="#00356e"></path><path d="M-32.4 0C-32.3 -6.9 -32.1 -13.8 -28.1 -16.2C-24.1 -18.7 -16.1 -16.7 -10.8 -18.7C-5.5 -20.7 -2.7 -26.6 0 -32.4L0 0Z" fill="#0049a5"></path><path d="M-21.6 0C-21.5 -4.6 -21.4 -9.2 -18.7 -10.8C-16 -12.5 -10.8 -11.2 -7.2 -12.5C-3.6 -13.8 -1.8 -17.7 0 -21.6L0 0Z" fill="#4c58da"></path><path d="M-10.8 0C-10.8 -2.3 -10.7 -4.6 -9.4 -5.4C-8 -6.2 -5.4 -5.6 -3.6 -6.2C-1.8 -6.9 -0.9 -8.9 0 -10.8L0 0Z" fill="#715df2"></path></g><g transform="translate(0, 0)"><path d="M54.1 0C53.6 11.1 53.2 22.2 46.8 27C40.5 31.8 28.3 30.3 19.5 33.8C10.7 37.2 5.4 45.7 0 54.1L0 0Z" fill="#001e38"></path><path d="M43.3 0C42.9 8.9 42.5 17.8 37.5 21.6C32.4 25.5 22.6 24.3 15.6 27C8.6 29.8 4.3 36.5 0 43.3L0 0Z" fill="#00356e"></path><path d="M32.4 0C32.2 6.7 31.9 13.3 28.1 16.2C24.3 19.1 17 18.2 11.7 20.3C6.4 22.3 3.2 27.4 0 32.4L0 0Z" fill="#0049a5"></path><path d="M21.6 0C21.5 4.4 21.3 8.9 18.7 10.8C16.2 12.7 11.3 12.1 7.8 13.5C4.3 14.9 2.1 18.3 0 21.6L0 0Z" fill="#4c58da"></path><path d="M10.8 0C10.7 2.2 10.6 4.4 9.4 5.4C8.1 6.4 5.7 6.1 3.9 6.8C2.1 7.4 1.1 9.1 0 10.8L0 0Z" fill="#715df2"></path></g></svg>