<svg id="visual" viewBox="0 0 900 600" width="900" height="600" xmlns="http://www.w3.org/2000/svg" xmlns:xlink="http://www.w3.org/1999/xlink" version="1.1"><rect x="0" y="0" width="900" height="600" fill="#001220"></rect><defs><linearGradient id="grad1_0" x1="33.3%" y1="100%" x2="100%" y2="0%"><stop offset="20%" stop-color="#715df2" stop-opacity="1"></stop><stop offset="80%" stop-color="#715df2" stop-opacity="1"></stop></linearGradient></defs><defs><linearGradient id="grad1_1" x1="33.3%" y1="100%" x2="100%" y2="0%"><stop offset="20%" stop-color="#715df2" stop-opacity="1"></stop><stop offset="80%" stop-color="#2651c0" stop-opacity="1"></stop></linearGradient></defs><defs><linearGradient id="grad1_2" x1="33.3%" y1="100%" x2="100%" y2="0%"><stop offset="20%" stop-color="#003f8a" stop-opacity="1"></stop><stop offset="80%" stop-color="#2651c0" stop-opacity="1"></stop></linearGradient></defs><defs><linearGradient id="grad1_3" x1="33.3%" y1="100%" x2="100%" y2="0%"><stop offset="20%" stop-color="#003f8a" stop-opacity="1"></stop><stop offset="80%" stop-color="#002a53" stop-opacity="1"></stop></linearGradient></defs><defs><linearGradient id="grad1_4" x1="33.3%" y1="100%" x2="100%" y2="0%"><stop offset="20%" stop-color="#001220" stop-opacity="1"></stop><stop offset="80%" stop-color="#002a53" stop-opacity="1"></stop></linearGradient></defs><defs><linearGradient id="grad2_0" x1="0%" y1="100%" x2="66.7%" y2="0%"><stop offset="20%" stop-color="#715df2" stop-opacity="1"></stop><stop offset="80%" stop-color="#715df2" stop-opacity="1"></stop></linearGradient></defs><defs><linearGradient id="grad2_1" x1="0%" y1="100%" x2="66.7%" y2="0%"><stop offset="20%" stop-color="#2651c0" stop-opacity="1"></stop><stop offset="80%" stop-color="#715df2" stop-opacity="1"></stop></linearGradient></defs><defs><linearGradient id="grad2_2" x1="0%" y1="100%" x2="66.7%" y2="0%"><stop offset="20%" stop-color="#2651c0" stop-opacity="1"></stop><stop offset="80%" stop-color="#003f8a" stop-opacity="1"></stop></linearGradient></defs><defs><linearGradient id="grad2_3" x1="0%" y1="100%" x2="66.7%" y2="0%"><stop offset="20%" stop-color="#002a53" stop-opacity="1"></stop><stop offset="80%" stop-color="#003f8a" stop-opacity="1"></stop></linearGradient></defs><defs><linearGradient id="grad2_4" x1="0%" y1="100%" x2="66.7%" y2="0%"><stop offset="20%" stop-color="#002a53" stop-opacity="1"></stop><stop offset="80%" stop-color="#001220" stop-opacity="1"></stop></linearGradient></defs><g transform="translate(900, 600)"><path d="M-243.4 0C-241.9 -11.6 -240.4 -23.2 -236.6 -34C-232.7 -44.9 -226.5 -55 -222.6 -65.4C-218.7 -75.8 -217 -86.5 -215.6 -98.5C-214.2 -110.4 -213 -123.7 -204.7 -131.6C-196.5 -139.4 -181.1 -141.8 -170.8 -148C-160.5 -154.2 -155.2 -164.1 -145.4 -167.8C-135.5 -171.5 -121.1 -168.9 -112.5 -175C-103.8 -181 -100.8 -195.7 -93.5 -204.7C-86.2 -213.7 -74.5 -217.1 -63.1 -214.9C-51.7 -212.8 -40.5 -205 -30 -208.9C-19.5 -212.7 -9.8 -228 0 -243.4L0 0Z" fill="#001e38"></path><path d="M-194.7 0C-193.5 -9.3 -192.3 -18.5 -189.3 -27.2C-186.2 -35.9 -181.2 -44 -178.1 -52.3C-174.9 -60.6 -173.6 -69.2 -172.5 -78.8C-171.3 -88.4 -170.4 -99 -163.8 -105.3C-157.2 -111.5 -144.9 -113.5 -136.6 -118.4C-128.4 -123.3 -124.2 -131.3 -116.3 -134.2C-108.4 -137.2 -96.9 -135.1 -90 -140C-83 -144.8 -80.6 -156.5 -74.8 -163.7C-68.9 -170.9 -59.6 -173.7 -50.5 -171.9C-41.4 -170.2 -32.4 -164 -24 -167.1C-15.6 -170.1 -7.8 -182.4 0 -194.7L0 0Z" fill="#00356e"></path><path d="M-146 0C-145.1 -7 -144.2 -13.9 -141.9 -20.4C-139.6 -26.9 -135.9 -33 -133.6 -39.2C-131.2 -45.5 -130.2 -51.9 -129.3 -59.1C-128.5 -66.3 -127.8 -74.2 -122.8 -78.9C-117.9 -83.7 -108.7 -85.1 -102.5 -88.8C-96.3 -92.5 -93.1 -98.5 -87.2 -100.7C-81.3 -102.9 -72.7 -101.4 -67.5 -105C-62.3 -108.6 -60.5 -117.4 -56.1 -122.8C-51.7 -128.2 -44.7 -130.3 -37.9 -129C-31 -127.7 -24.3 -123 -18 -125.3C-11.7 -127.6 -5.9 -136.8 0 -146L0 0Z" fill="#0049a5"></path><path d="M-97.3 0C-96.8 -4.6 -96.2 -9.3 -94.6 -13.6C-93.1 -17.9 -90.6 -22 -89 -26.1C-87.5 -30.3 -86.8 -34.6 -86.2 -39.4C-85.7 -44.2 -85.2 -49.5 -81.9 -52.6C-78.6 -55.8 -72.4 -56.7 -68.3 -59.2C-64.2 -61.7 -62.1 -65.6 -58.2 -67.1C-54.2 -68.6 -48.5 -67.6 -45 -70C-41.5 -72.4 -40.3 -78.3 -37.4 -81.9C-34.5 -85.5 -29.8 -86.8 -25.2 -86C-20.7 -85.1 -16.2 -82 -12 -83.5C-7.8 -85.1 -3.9 -91.2 0 -97.3L0 0Z" fill="#4c58da"></path><path d="M-48.7 0C-48.4 -2.3 -48.1 -4.6 -47.3 -6.8C-46.5 -9 -45.3 -11 -44.5 -13.1C-43.7 -15.2 -43.4 -17.3 -43.1 -19.7C-42.8 -22.1 -42.6 -24.7 -40.9 -26.3C-39.3 -27.9 -36.2 -28.4 -34.2 -29.6C-32.1 -30.8 -31 -32.8 -29.1 -33.6C-27.1 -34.3 -24.2 -33.8 -22.5 -35C-20.8 -36.2 -20.2 -39.1 -18.7 -40.9C-17.2 -42.7 -14.9 -43.4 -12.6 -43C-10.3 -42.6 -8.1 -41 -6 -41.8C-3.9 -42.5 -2 -45.6 0 -48.7L0 0Z" fill="#715df2"></path></g><g transform="translate(0, 0)"><path d="M243.4 0C235.5 11.3 227.6 22.5 217.8 31.3C208 40.1 196.2 46.4 198.6 58.3C201 70.2 217.4 87.7 220.1 100.5C222.8 113.4 211.7 121.7 202.7 130.3C193.8 138.9 186.9 147.9 176.1 152.6C165.3 157.2 150.5 157.5 140.8 162.5C131.1 167.4 126.6 177 121.6 189.3C116.7 201.5 111.3 216.5 101.1 221.4C90.9 226.3 76 221.1 63.4 215.9C50.7 210.6 40.4 205.3 30.2 209.8C20 214.4 10 228.9 0 243.4L0 0Z" fill="#001e38"></path><path d="M194.7 0C188.4 9 182.1 18 174.2 25C166.4 32.1 157 37.1 158.9 46.7C160.8 56.2 174 70.1 176.1 80.4C178.3 90.7 169.4 97.3 162.2 104.2C155 111.1 149.5 118.3 140.9 122.1C132.2 125.8 120.4 126 112.6 130C104.9 133.9 101.3 141.6 97.3 151.4C93.3 161.2 89 173.2 80.9 177.1C72.8 181 60.8 176.9 50.7 172.7C40.6 168.5 32.3 164.2 24.1 167.9C16 171.5 8 183.1 0 194.7L0 0Z" fill="#00356e"></path><path d="M146 0C141.3 6.8 136.5 13.5 130.7 18.8C124.8 24.1 117.7 27.9 119.2 35C120.6 42.1 130.5 52.6 132.1 60.3C133.7 68 127 73 121.6 78.2C116.3 83.4 112.2 88.8 105.7 91.5C99.2 94.3 90.3 94.5 84.5 97.5C78.7 100.5 76 106.2 73 113.6C70 120.9 66.8 129.9 60.7 132.8C54.6 135.8 45.6 132.7 38 129.5C30.4 126.4 24.2 123.2 18.1 125.9C12 128.6 6 137.3 0 146L0 0Z" fill="#0049a5"></path><path d="M97.3 0C94.2 4.5 91 9 87.1 12.5C83.2 16 78.5 18.6 79.4 23.3C80.4 28.1 87 35.1 88.1 40.2C89.1 45.4 84.7 48.7 81.1 52.1C77.5 55.6 74.8 59.2 70.4 61C66.1 62.9 60.2 63 56.3 65C52.5 67 50.6 70.8 48.7 75.7C46.7 80.6 44.5 86.6 40.4 88.6C36.4 90.5 30.4 88.5 25.4 86.4C20.3 84.3 16.1 82.1 12.1 83.9C8 85.8 4 91.6 0 97.3L0 0Z" fill="#4c58da"></path><path d="M48.7 0C47.1 2.3 45.5 4.5 43.6 6.3C41.6 8 39.2 9.3 39.7 11.7C40.2 14 43.5 17.5 44 20.1C44.6 22.7 42.3 24.3 40.5 26.1C38.8 27.8 37.4 29.6 35.2 30.5C33.1 31.4 30.1 31.5 28.2 32.5C26.2 33.5 25.3 35.4 24.3 37.9C23.3 40.3 22.3 43.3 20.2 44.3C18.2 45.3 15.2 44.2 12.7 43.2C10.1 42.1 8.1 41.1 6 42C4 42.9 2 45.8 0 48.7L0 0Z" fill="#715df2"></path></g></svg>