<svg id="visual" viewBox="0 0 960 540" width="960" height="540" xmlns="http://www.w3.org/2000/svg" xmlns:xlink="http://www.w3.org/1999/xlink" version="1.1"><g stroke-width="1" stroke-linejoin="bevel"><path d="M439.7 249L413.7 154L348 250Z" fill="#14479d" stroke="#14479d"></path><path d="M413.7 154L327 179L348 250Z" fill="#294eb3" stroke="#294eb3"></path><path d="M439.7 249L521.3 155L413.7 154Z" fill="#002445" stroke="#002445"></path><path d="M521.3 155L441.7 70L413.7 154Z" fill="#715df2" stroke="#715df2"></path><path d="M413.7 154L317 59L327 179Z" fill="#294eb3" stroke="#294eb3"></path><path d="M317 59L233.3 173L327 179Z" fill="#294eb3" stroke="#294eb3"></path><path d="M327 179L233.3 173L348 250Z" fill="#3f54c9" stroke="#3f54c9"></path><path d="M441.7 70L317 59L413.7 154Z" fill="#00101c" stroke="#00101c"></path><path d="M503.3 347L550.3 281L439.7 249Z" fill="#003771" stroke="#003771"></path><path d="M439.7 249L550.3 281L521.3 155Z" fill="#3f54c9" stroke="#3f54c9"></path><path d="M389.7 398L503.3 347L439.7 249Z" fill="#3f54c9" stroke="#3f54c9"></path><path d="M342 398L389.7 398L348 250Z" fill="#002445" stroke="#002445"></path><path d="M348 250L389.7 398L439.7 249Z" fill="#14479d" stroke="#14479d"></path><path d="M235.3 368L342 398L348 250Z" fill="#3f54c9" stroke="#3f54c9"></path><path d="M233.3 173L202.3 250L348 250Z" fill="#14479d" stroke="#14479d"></path><path d="M658 90L507.3 51L521.3 155Z" fill="#002e5b" stroke="#002e5b"></path><path d="M521.3 155L507.3 51L441.7 70Z" fill="#00101c" stroke="#00101c"></path><path d="M441.7 70L396.7 0L317 59Z" fill="#14479d" stroke="#14479d"></path><path d="M501.3 0L396.7 0L441.7 70Z" fill="#715df2" stroke="#715df2"></path><path d="M202.3 250L235.3 368L348 250Z" fill="#003f87" stroke="#003f87"></path><path d="M317 59L196.3 91L233.3 173Z" fill="#002445" stroke="#002445"></path><path d="M233.3 173L105.7 175L202.3 250Z" fill="#5759de" stroke="#5759de"></path><path d="M227.3 0L196.3 91L317 59Z" fill="#3f54c9" stroke="#3f54c9"></path><path d="M396.7 0L296 0L317 59Z" fill="#5759de" stroke="#5759de"></path><path d="M653 0L501.3 0L507.3 51Z" fill="#294eb3" stroke="#294eb3"></path><path d="M507.3 51L501.3 0L441.7 70Z" fill="#294eb3" stroke="#294eb3"></path><path d="M311 483L436.7 468L389.7 398Z" fill="#001b30" stroke="#001b30"></path><path d="M389.7 398L436.7 468L503.3 347Z" fill="#5759de" stroke="#5759de"></path><path d="M503.3 347L676 370L550.3 281Z" fill="#14479d" stroke="#14479d"></path><path d="M311 483L389.7 398L342 398Z" fill="#003771" stroke="#003771"></path><path d="M436.7 468L534.3 434L503.3 347Z" fill="#003f87" stroke="#003f87"></path><path d="M296 0L227.3 0L317 59Z" fill="#14479d" stroke="#14479d"></path><path d="M671 272L667 156L550.3 281Z" fill="#002e5b" stroke="#002e5b"></path><path d="M550.3 281L667 156L521.3 155Z" fill="#715df2" stroke="#715df2"></path><path d="M676 370L671 272L550.3 281Z" fill="#002445" stroke="#002445"></path><path d="M235.3 368L311 483L342 398Z" fill="#002445" stroke="#002445"></path><path d="M140.7 57L105.7 175L196.3 91Z" fill="#003771" stroke="#003771"></path><path d="M196.3 91L105.7 175L233.3 173Z" fill="#003771" stroke="#003771"></path><path d="M202.3 250L90.7 340L235.3 368Z" fill="#14479d" stroke="#14479d"></path><path d="M235.3 368L215.3 478L311 483Z" fill="#002445" stroke="#002445"></path><path d="M667 156L658 90L521.3 155Z" fill="#00101c" stroke="#00101c"></path><path d="M105.7 175L100.7 234L202.3 250Z" fill="#715df2" stroke="#715df2"></path><path d="M227.3 0L140.7 57L196.3 91Z" fill="#002e5b" stroke="#002e5b"></path><path d="M123.7 478L215.3 478L235.3 368Z" fill="#3f54c9" stroke="#3f54c9"></path><path d="M534.3 434L676 370L503.3 347Z" fill="#294eb3" stroke="#294eb3"></path><path d="M671 272L728.7 169L667 156Z" fill="#3f54c9" stroke="#3f54c9"></path><path d="M676 370L712.7 275L671 272Z" fill="#001b30" stroke="#001b30"></path><path d="M667 156L728.7 169L658 90Z" fill="#003f87" stroke="#003f87"></path><path d="M0 240L90.7 340L100.7 234Z" fill="#002e5b" stroke="#002e5b"></path><path d="M100.7 234L90.7 340L202.3 250Z" fill="#001b30" stroke="#001b30"></path><path d="M332 540L427.7 540L436.7 468Z" fill="#3f54c9" stroke="#3f54c9"></path><path d="M436.7 468L505.3 540L534.3 434Z" fill="#001b30" stroke="#001b30"></path><path d="M534.3 434L609 477L676 370Z" fill="#3f54c9" stroke="#3f54c9"></path><path d="M332 540L436.7 468L311 483Z" fill="#003771" stroke="#003771"></path><path d="M750.7 54L653 0L658 90Z" fill="#002445" stroke="#002445"></path><path d="M658 90L653 0L507.3 51Z" fill="#5759de" stroke="#5759de"></path><path d="M214.3 540L332 540L311 483Z" fill="#5759de" stroke="#5759de"></path><path d="M712.7 275L728.7 169L671 272Z" fill="#003f87" stroke="#003f87"></path><path d="M505.3 540L609 477L534.3 434Z" fill="#294eb3" stroke="#294eb3"></path><path d="M427.7 540L505.3 540L436.7 468Z" fill="#3f54c9" stroke="#3f54c9"></path><path d="M0 120L0 148L105.7 175Z" fill="#002445" stroke="#002445"></path><path d="M105.7 175L0 240L100.7 234Z" fill="#5759de" stroke="#5759de"></path><path d="M227.3 0L104.7 0L140.7 57Z" fill="#5759de" stroke="#5759de"></path><path d="M714.7 410L719.7 386L676 370Z" fill="#715df2" stroke="#715df2"></path><path d="M676 370L719.7 386L712.7 275Z" fill="#001b30" stroke="#001b30"></path><path d="M712.7 275L834.3 180L728.7 169Z" fill="#294eb3" stroke="#294eb3"></path><path d="M123.7 478L214.3 540L215.3 478Z" fill="#14479d" stroke="#14479d"></path><path d="M215.3 478L214.3 540L311 483Z" fill="#003f87" stroke="#003f87"></path><path d="M609 477L714.7 410L676 370Z" fill="#003771" stroke="#003771"></path><path d="M90.7 340L123.7 478L235.3 368Z" fill="#003771" stroke="#003771"></path><path d="M728.7 169L750.7 54L658 90Z" fill="#715df2" stroke="#715df2"></path><path d="M770.7 0L750.7 54L853.3 93Z" fill="#001b30" stroke="#001b30"></path><path d="M0 148L0 240L105.7 175Z" fill="#3f54c9" stroke="#3f54c9"></path><path d="M90.7 340L0 386L123.7 478Z" fill="#002e5b" stroke="#002e5b"></path><path d="M0 120L105.7 175L140.7 57Z" fill="#002e5b" stroke="#002e5b"></path><path d="M104.7 0L0 120L140.7 57Z" fill="#3f54c9" stroke="#3f54c9"></path><path d="M505.3 540L629 540L609 477Z" fill="#294eb3" stroke="#294eb3"></path><path d="M609 477L739.7 540L714.7 410Z" fill="#002445" stroke="#002445"></path><path d="M0 240L0 386L90.7 340Z" fill="#294eb3" stroke="#294eb3"></path><path d="M853.3 93L750.7 54L728.7 169Z" fill="#00101c" stroke="#00101c"></path><path d="M750.7 54L770.7 0L653 0Z" fill="#002e5b" stroke="#002e5b"></path><path d="M0 483L100.7 540L123.7 478Z" fill="#715df2" stroke="#715df2"></path><path d="M123.7 478L100.7 540L214.3 540Z" fill="#715df2" stroke="#715df2"></path><path d="M829.3 324L712.7 275L719.7 386Z" fill="#003771" stroke="#003771"></path><path d="M865.3 230L834.3 180L712.7 275Z" fill="#002e5b" stroke="#002e5b"></path><path d="M104.7 0L0 0L0 120Z" fill="#3f54c9" stroke="#3f54c9"></path><path d="M855.3 443L829.3 324L719.7 386Z" fill="#002445" stroke="#002445"></path><path d="M855.3 443L719.7 386L714.7 410Z" fill="#002445" stroke="#002445"></path><path d="M829.3 324L865.3 230L712.7 275Z" fill="#294eb3" stroke="#294eb3"></path><path d="M834.3 180L853.3 93L728.7 169Z" fill="#003f87" stroke="#003f87"></path><path d="M960 127L853.3 93L834.3 180Z" fill="#00101c" stroke="#00101c"></path><path d="M629 540L739.7 540L609 477Z" fill="#14479d" stroke="#14479d"></path><path d="M0 386L0 483L123.7 478Z" fill="#001b30" stroke="#001b30"></path><path d="M853.3 93L854.3 0L770.7 0Z" fill="#715df2" stroke="#715df2"></path><path d="M960 0L854.3 0L853.3 93Z" fill="#003771" stroke="#003771"></path><path d="M0 483L0 540L100.7 540Z" fill="#003771" stroke="#003771"></path><path d="M739.7 540L855.3 443L714.7 410Z" fill="#5759de" stroke="#5759de"></path><path d="M960 248L960 207L865.3 230Z" fill="#00101c" stroke="#00101c"></path><path d="M960 248L865.3 230L960 320Z" fill="#14479d" stroke="#14479d"></path><path d="M865.3 230L960 207L834.3 180Z" fill="#14479d" stroke="#14479d"></path><path d="M960 320L865.3 230L829.3 324Z" fill="#3f54c9" stroke="#3f54c9"></path><path d="M960 207L960 127L834.3 180Z" fill="#00101c" stroke="#00101c"></path><path d="M855.3 443L960 320L829.3 324Z" fill="#5759de" stroke="#5759de"></path><path d="M739.7 540L868.3 540L855.3 443Z" fill="#715df2" stroke="#715df2"></path><path d="M855.3 443L960 433L960 320Z" fill="#003f87" stroke="#003f87"></path><path d="M960 127L960 0L853.3 93Z" fill="#294eb3" stroke="#294eb3"></path><path d="M868.3 540L960 433L855.3 443Z" fill="#003f87" stroke="#003f87"></path><path d="M868.3 540L960 540L960 433Z" fill="#002e5b" stroke="#002e5b"></path></g></svg>